<svg xmlns="http://www.w3.org/2000/svg" xmlns:xlink="http://www.w3.org/1999/xlink" width="48.216" height="41" viewBox="0 0 48.216 41">
  <defs>
    <filter id="Sustracci贸n_452" x="0" y="0" width="48.216" height="41" filterUnits="userSpaceOnUse">
      <feOffset dy="3" input="SourceAlpha"/>
      <feGaussianBlur stdDeviation="3" result="blur"/>
      <feFlood flood-opacity="0.161"/>
      <feComposite operator="in" in2="blur"/>
      <feComposite in="SourceGraphic"/>
    </filter>
  </defs>
  <g id="Grupo_12378" data-name="Grupo 12378" transform="translate(12999.216 -5210)">
    <g transform="matrix(1, 0, 0, 1, -12999.22, 5210)" filter="url(#Sustracci贸n_452)">
      <path id="Sustracci贸n_452-2" data-name="Sustracci贸n 452" d="M20.216,23H16.528a10.011,10.011,0,0,1-10-10V6.552A6.51,6.51,0,0,0,4.617,1.927,6.51,6.51,0,0,0,0,0H20.216a10.011,10.011,0,0,1,10,10v3A10.011,10.011,0,0,1,20.216,23Z" transform="translate(9 6)" fill="#fff"/>
    </g>
    <g id="Grupo_12377" data-name="Grupo 12377" transform="translate(-12978.359 5220.558)">
      <g id="Grupo_5875" data-name="Grupo 5875" transform="translate(0)">
        <g id="Grupo_5868" data-name="Grupo 5868" transform="translate(0 0)">
          <g id="Grupo_5870" data-name="Grupo 5870">
            <g id="Grupo_5878" data-name="Grupo 5878">
              <g id="Grupo_5875-2" data-name="Grupo 5875" transform="translate(0 0.029)">
                <path id="Trazado_2759" data-name="Trazado 2759" d="M5281.064-1937.134a2.768,2.768,0,0,1,1.907-2.75,2.732,2.732,0,0,1,2.981.937,2.725,2.725,0,0,1,.115,3.169l1.1,1.37c.44.547.88,1.094,1.324,1.638a.479.479,0,0,1,.111.325q-.005,2.1,0,4.2c0,.326-.087.412-.415.412h-12.333c-.328,0-.416-.088-.416-.411q0-2.061,0-4.122a.555.555,0,0,1,.126-.369c1.107-1.382,2.217-2.763,3.312-4.155a.575.575,0,0,1,.521-.247C5279.948-1937.126,5280.5-1937.134,5281.064-1937.134Zm-.613,8.4h1.962v.127c0-1.214,0-2.193,0-3.407a.469.469,0,0,0-.11-.322q-1.187-1.462-2.363-2.93c-.238-.3-.478-.639-.724-.944-.038.044-.065.073-.091.1-1.021,1.272-1.887,2.356-2.905,3.631a.337.337,0,0,0-.064.2c0,1.245,0,2.167,0,3.412,0,.044.006.089.01.136h1.215v-2.812c0-.32.082-.4.406-.4h2.263c.317,0,.4.085.4.407v2.8Zm7.448.014v-3.5h-4.67v3.5Zm-6.269-8.6a2.17,2.17,0,0,0,2.158,2.209,2.183,2.183,0,0,0,2.177-2.164,2.179,2.179,0,0,0-2.167-2.174A2.154,2.154,0,0,0,5281.631-1937.323Z" transform="translate(-5275.438 1940.009)" fill="#575757"/>
              </g>
              <g id="Grupo_5877" data-name="Grupo 5877" transform="translate(5.566)">
                <g id="Grupo_5876" data-name="Grupo 5876" transform="translate(1.464 0.83)">
                  <path id="Trazado_2760" data-name="Trazado 2760" d="M5503.361-1910.682a1.218,1.218,0,0,1-.734-.223.891.891,0,0,1-.366-.6.287.287,0,0,1,.221-.353c.172-.027.292.072.324.269.038.232.233.358.543.334,0-.228,0-.458,0-.689,0-.028-.066-.064-.108-.078a3.855,3.855,0,0,1-.552-.182.73.73,0,0,1-.457-.7.834.834,0,0,1,.5-.747,4.016,4.016,0,0,1,.61-.186c.056-.241.137-.33.309-.317s.232.11.258.333a3.962,3.962,0,0,1,.57.2.794.794,0,0,1,.448.71.272.272,0,0,1-.25.3.273.273,0,0,1-.286-.245.408.408,0,0,0-.474-.356c0,.229-.006.46.007.69,0,.035.092.086.146.093a1.121,1.121,0,0,1,.58.271.747.747,0,0,1,.015,1.183,1.286,1.286,0,0,1-.73.3c-.067.263-.153.351-.323.333C5503.457-1910.358,5503.378-1910.462,5503.361-1910.682Zm0-2.618a2.573,2.573,0,0,0-.445.2.209.209,0,0,0,.011.378,2.624,2.624,0,0,0,.434.165Zm.571,2.042c.273-.024.468-.17.462-.337,0-.135-.23-.276-.462-.287Z" transform="translate(-5502.227 1914.157)" fill="#e10518"/>
                </g>
                <path id="Trazado_2761" data-name="Trazado 2761" d="M5457.742-1940.327a2.14,2.14,0,0,1,2.138,2.138,2.14,2.14,0,0,1-2.138,2.138,2.14,2.14,0,0,1-2.138-2.138,2.14,2.14,0,0,1,2.138-2.138m0-.62a2.758,2.758,0,0,0-2.758,2.758,2.758,2.758,0,0,0,2.758,2.758,2.757,2.757,0,0,0,2.758-2.758,2.758,2.758,0,0,0-2.758-2.758Z" transform="translate(-5454.984 1940.947)" fill="#e10518"/>
              </g>
            </g>
          </g>
        </g>
      </g>
    </g>
  </g>
</svg>
