<svg xmlns="http://www.w3.org/2000/svg" width="26.154" height="26" viewBox="0 0 26.154 26">
  <g id="Grupo_12386" data-name="Grupo 12386" transform="translate(10693 -699)">
    <g id="Layer_5_58_" transform="translate(-10692 701)">
      <g id="Grupo_7280" data-name="Grupo 7280" transform="translate(0 0)">
        <g id="Grupo_7278" data-name="Grupo 7278" transform="translate(11.852)">
          <path id="Trazado_4020" data-name="Trazado 4020" d="M238.678,69.557c-.752-.3-.969-.484-.969-.813,0-.263.2-.571.762-.571a2.115,2.115,0,0,1,.882.2.277.277,0,0,0,.13.033.262.262,0,0,0,.245-.168l.137-.349a.216.216,0,0,0-.117-.278,5.293,5.293,0,0,0-.911-.238.047.047,0,0,1-.043-.048l0-.507a.281.281,0,0,0-.284-.277h-.245a.281.281,0,0,0-.284.277v.533c0,.041-.044.059-.06.062a1.471,1.471,0,0,0-1.228,1.431c0,.87.719,1.263,1.5,1.558.621.244.874.491.874.853,0,.394-.359.67-.873.67a3.077,3.077,0,0,1-1.039-.281.277.277,0,0,0-.12-.027.265.265,0,0,0-.251.174l-.13.353a.229.229,0,0,0,.116.287,4.623,4.623,0,0,0,1.1.306c.008,0,.051.016.051.056v.53a.281.281,0,0,0,.284.277h.253a.281.281,0,0,0,.284-.277v-.558a.053.053,0,0,1,.046-.059,1.539,1.539,0,0,0,1.3-1.509C240.088,70.438,239.666,69.947,238.678,69.557Z" transform="translate(-231.71 -63.418)" fill="#dd141d"/>
          <path id="Trazado_4021" data-name="Trazado 4021" d="M173.813,22.509a6.652,6.652,0,1,0,6.652,6.652A6.652,6.652,0,0,0,173.813,22.509Zm0,11.762a5.11,5.11,0,1,1,5.11-5.11A5.11,5.11,0,0,1,173.813,34.271Z" transform="translate(-167.161 -22.509)" fill="#dd141d"/>
        </g>
        <g id="Grupo_7279" data-name="Grupo 7279" transform="translate(0 13.94)">
          <path id="Trazado_4022" data-name="Trazado 4022" d="M114.4,221.708a16.925,16.925,0,0,1-5.3,1.807c-1.726.271-4.973-.382-4.973-1.153,0-.292,2.848.72,4.571.26,1.321-.352,1.134-1.588.415-1.751s-4.9-1.7-6.687-1.748a30.909,30.909,0,0,0-3.927.457c-.345.056-.561.05-.582.38-.1,1.533-.3,4.667-.4,6.3,0,.035.046.5.43.172A1.993,1.993,0,0,1,99.5,225.8c.855.194,8.254,1.55,9.275,1.312a25.762,25.762,0,0,0,6.386-3.55C116.385,222.387,115.43,221.141,114.4,221.708Z" transform="translate(-90.598 -219.122)" fill="#575757"/>
          <path id="Trazado_4023" data-name="Trazado 4023" d="M5.276,222.228,1.4,222.037a.7.7,0,0,0-.679.5l-.7,6.4a.423.423,0,0,0,.409.549h4.3a.572.572,0,0,0,.586-.522l.472-6.165A.529.529,0,0,0,5.276,222.228Zm-2.282,6.41a1.072,1.072,0,1,1,1.072-1.072A1.072,1.072,0,0,1,2.994,228.638Z" transform="translate(0 -221.83)" fill="#575757"/>
        </g>
      </g>
    </g>
    <rect id="Rectángulo_1490" data-name="Rectángulo 1490" width="26" height="26" transform="translate(-10693 699)" fill="none"/>
  </g>
</svg>
