<svg xmlns="http://www.w3.org/2000/svg" width="25.419" height="25.419" viewBox="0 0 25.419 25.419">
  <g id="Grupo_12379" data-name="Grupo 12379" transform="translate(12458.811 -5599.572)">
    <g id="Grupo_12378" data-name="Grupo 12378" transform="translate(-12458.261 5600.122)">
      <path id="Trazado_3029" data-name="Trazado 3029" d="M4.277,18.807a1.983,1.983,0,0,0-.958.245A11.215,11.215,0,0,1,14.392,1.172.475.475,0,0,0,14.58.241,12.25,12.25,0,0,0,12.159,0,12.159,12.159,0,0,0,2.617,19.7a2,2,0,1,0,1.661-.888Z" transform="translate(0 0)" fill="#575757" stroke="#575757" stroke-width="1.1"/>
      <path id="Trazado_3030" data-name="Trazado 3030" d="M209.806,35.152a1.991,1.991,0,1,0-.7.644,11.215,11.215,0,0,1-11.051,17.883.475.475,0,0,0-.186.932,12.258,12.258,0,0,0,2.4.236,12.159,12.159,0,0,0,9.542-19.7Z" transform="translate(-188.104 -30.528)" fill="#575757" stroke="#575757" stroke-width="1.1"/>
    </g>
    <path id="gear" d="M11.812,4.671l-.93-.2a5.06,5.06,0,0,0-.3-.722l.515-.8a.362.362,0,0,0-.048-.451L9.6,1.047A.362.362,0,0,0,9.15,1l-.8.515a5.06,5.06,0,0,0-.722-.3l-.2-.93A.361.361,0,0,0,7.072,0H5.024a.361.361,0,0,0-.353.285l-.2.93a5.06,5.06,0,0,0-.722.3L2.947,1a.362.362,0,0,0-.451.048L1.047,2.5A.362.362,0,0,0,1,2.947l.515.8a5.06,5.06,0,0,0-.3.722l-.93.2A.362.362,0,0,0,0,5.024V7.072a.362.362,0,0,0,.285.353l.93.2a5.06,5.06,0,0,0,.3.722L1,9.15a.362.362,0,0,0,.048.451L2.5,11.049a.362.362,0,0,0,.451.048l.8-.515a5.06,5.06,0,0,0,.722.3l.2.93a.361.361,0,0,0,.353.285H7.072a.361.361,0,0,0,.353-.285l.2-.93a5.06,5.06,0,0,0,.722-.3l.8.515a.361.361,0,0,0,.451-.048L11.049,9.6A.362.362,0,0,0,11.1,9.15l-.515-.8a5.06,5.06,0,0,0,.3-.722l.93-.2a.362.362,0,0,0,.285-.353V5.024A.362.362,0,0,0,11.812,4.671ZM8.217,6.048A2.169,2.169,0,1,1,6.048,3.88,2.171,2.171,0,0,1,8.217,6.048Zm0,0" transform="translate(-12451.959 5606.096)" fill="#575757"/>
  </g>
</svg>
