<svg xmlns="http://www.w3.org/2000/svg" width="26" height="26" viewBox="0 0 26 26">
  <g id="Grupo_12387" data-name="Grupo 12387" transform="translate(10692 -740)">
    <g id="money-bag" transform="translate(-10691 741)">
      <path id="Trazado_4088" data-name="Trazado 4088" d="M9.373,169.215a17,17,0,0,0,5.068-.616,2.458,2.458,0,0,1,.713-2.253,2.5,2.5,0,0,1,0-3.586,2.5,2.5,0,0,1,0-3.587,2.493,2.493,0,0,1,.274-3.812,10.173,10.173,0,0,0-1.361-1.049,1.405,1.405,0,0,0,.328-.877A1.434,1.434,0,0,0,12.959,152H5.786a1.434,1.434,0,0,0-1.435,1.435,1.406,1.406,0,0,0,.326.875A10.267,10.267,0,0,0,0,162.76C0,168.546,5.369,169.215,9.373,169.215Zm-.008-6.963a2.146,2.146,0,0,1-.71-4.174v-1.057a.717.717,0,1,1,1.435,0v1.062a2.148,2.148,0,0,1,1.427,2.017.717.717,0,0,1-1.435,0,.717.717,0,1,0-.717.717,2.147,2.147,0,0,1,.725,4.169v.642a.717.717,0,0,1-1.435,0v-.637a2.148,2.148,0,0,1-1.442-2.022.717.717,0,0,1,1.435,0,.717.717,0,1,0,.717-.717Zm0,0" transform="translate(0 -144.731)" fill="#444"/>
      <path id="Trazado_4089" data-name="Trazado 4089" d="M338.579,467h-6.5a1.076,1.076,0,1,0,0,2.152h6.5a1.076,1.076,0,1,0,0-2.152Zm0,0" transform="translate(-315.172 -444.668)" fill="#dd141d"/>
      <path id="Trazado_4090" data-name="Trazado 4090" d="M338.579,392h-6.5a1.076,1.076,0,1,0,0,2.152h6.5a1.076,1.076,0,1,0,0-2.152Zm0,0" transform="translate(-315.172 -373.255)" fill="#dd141d"/>
      <path id="Trazado_4091" data-name="Trazado 4091" d="M338.579,317h-6.5a1.076,1.076,0,1,0,0,2.152h6.5a1.076,1.076,0,1,0,0-2.152Zm0,0" transform="translate(-315.172 -301.841)" fill="#dd141d"/>
      <path id="Trazado_4092" data-name="Trazado 4092" d="M338.579,242h-6.5a1.076,1.076,0,1,0,0,2.152h6.5a1.076,1.076,0,1,0,0-2.152Zm0,0" transform="translate(-315.172 -230.428)" fill="#dd141d"/>
      <path id="Trazado_4093" data-name="Trazado 4093" d="M98.041,1.435a2.146,2.146,0,0,0-4.049,0H91.717a.717.717,0,0,0-.68.944l1.12,3.455h7.728L101,2.379a.717.717,0,0,0-.68-.944Zm0,0" transform="translate(-86.648)" fill="#444"/>
    </g>
    <rect id="Rectángulo_1491" data-name="Rectángulo 1491" width="26" height="26" transform="translate(-10692 740)" fill="none"/>
  </g>
</svg>
