<svg xmlns="http://www.w3.org/2000/svg" width="22.406" height="26.24" viewBox="0 0 22.406 26.24">
  <g id="Grupo_12377" data-name="Grupo 12377" transform="translate(13306 -5893.76)">
    <path id="Sustracción_452" data-name="Sustracción 452" d="M6.406,12.643A6.406,6.406,0,0,1,1.9,10.79a6.212,6.212,0,0,1,0-8.936A6.406,6.406,0,0,1,6.406,0a6.322,6.322,0,0,1,0,12.643ZM6.3,1.049A5.248,5.248,0,1,0,11.546,6.3,5.254,5.254,0,0,0,6.3,1.049Z" transform="translate(-13296.554 5893.76)" fill="#575757"/>
    <path id="Trazado_5021" data-name="Trazado 5021" d="M21.637,124.708a.656.656,0,1,0-.928.928,1.313,1.313,0,0,1-.928,2.241h-.033a7.27,7.27,0,0,0-7.231-6.564H9.234a7.018,7.018,0,0,0-1.318.131A4.547,4.547,0,0,0,4.6,120a.656.656,0,0,0-.656.656v2.955a7.2,7.2,0,0,0-1.674,2.953H1.969A1.971,1.971,0,0,0,0,128.534v1.4A1.971,1.971,0,0,0,1.969,131.9s.442,0,.789,0a7.262,7.262,0,0,0,1.834,2.284c0,.878,0,2.309,0,2.309a.656.656,0,0,0,.656.656H7.877a.7.7,0,0,0,.7-.656v-.686q.327.03.656.029h3.282v.656a.656.656,0,0,0,.656.656h2.67a.656.656,0,0,0,.656-.656l0-1.826a7.41,7.41,0,0,0,3.238-5.482h.042a2.625,2.625,0,0,0,1.856-4.482ZM5.245,127.89a.663.663,0,1,1,.663-.663A.668.668,0,0,1,5.245,127.89Zm8.584-2.639H8.577a.658.658,0,1,1,0-1.313h5.252a.656.656,0,0,1,0,1.313Z" transform="translate(-13306 5782.845)" fill="#575757"/>
    <path id="Trazado_5022" data-name="Trazado 5022" d="M1295,7144.444v6.329" transform="translate(-14585.199 -1247.536)" fill="none" stroke="#575757" stroke-linecap="round" stroke-width="1"/>
    <path id="Trazado_5023" data-name="Trazado 5023" d="M0,0V6.327" transform="translate(-13287.039 5900.073) rotate(90)" fill="none" stroke="#575757" stroke-linecap="round" stroke-width="1"/>
  </g>
</svg>
