<svg xmlns="http://www.w3.org/2000/svg" width="26" height="26" viewBox="0 0 26 26">
  <g id="Grupo_12385" data-name="Grupo 12385" transform="translate(10692 -662)">
    <g id="Grupo_12381" data-name="Grupo 12381" transform="translate(-10721 147)">
      <g id="calendar-4" transform="translate(31 517)">
        <g id="Grupo_7288" data-name="Grupo 7288">
          <g id="Grupo_7287" data-name="Grupo 7287">
            <path id="Trazado_4034" data-name="Trazado 4034" d="M18.239,1.689h-1.1V.844a.844.844,0,1,0-1.689,0v.844H11.61V.844a.844.844,0,0,0-1.689,0v.844h-3.8V.844a.844.844,0,0,0-1.689,0v.844H3.378A3.381,3.381,0,0,0,0,5.066V18.239a3.381,3.381,0,0,0,3.378,3.378h6.46a.844.844,0,0,0,0-1.689H3.378a1.691,1.691,0,0,1-1.689-1.689V5.066A1.691,1.691,0,0,1,3.378,3.378H4.433v.844a.844.844,0,1,0,1.689,0V3.378h3.8v.844a.844.844,0,0,0,1.689,0V3.378h3.842v.844a.844.844,0,0,0,1.689,0V3.378h1.1a1.691,1.691,0,0,1,1.689,1.689V9.879a.844.844,0,1,0,1.689,0V5.066A3.381,3.381,0,0,0,18.239,1.689Z" fill="#444"/>
            <circle id="Elipse_1075" data-name="Elipse 1075" cx="1" cy="1" r="1" transform="translate(8 8)" fill="#444"/>
            <circle id="Elipse_1083" data-name="Elipse 1083" cx="1" cy="1" r="1" transform="translate(16 8)" fill="#444"/>
            <circle id="Elipse_1082" data-name="Elipse 1082" cx="1" cy="1" r="1" transform="translate(8 12)" fill="#444"/>
            <circle id="Elipse_1077" data-name="Elipse 1077" cx="1" cy="1" r="1" transform="translate(4 8)" fill="#444"/>
            <circle id="Elipse_1084" data-name="Elipse 1084" cx="1" cy="1" r="1" transform="translate(12 8)" fill="#444"/>
            <circle id="Elipse_1081" data-name="Elipse 1081" cx="1" cy="1" r="1" transform="translate(4 12)" fill="#444"/>
            <circle id="Elipse_1079" data-name="Elipse 1079" cx="1" cy="1" r="1" transform="translate(4 16)" fill="#444"/>
            <circle id="Elipse_1080" data-name="Elipse 1080" cx="1" cy="1" r="1" transform="translate(8 16)" fill="#444"/>
            <path id="Trazado_4036" data-name="Trazado 4036" d="M373.211,332.481h-1.057V330.9c0-.5-.065-.785-.563-.785s-.591.287-.591.785v1.85a.9.9,0,0,0,.9.9h1.309c.5,0,.773-.132.773-.63S373.71,332.481,373.211,332.481Z" transform="translate(-355.537 -316.068)" fill="#dd141d"/>
          </g>
          <g id="Grupo_12378" data-name="Grupo 12378">
            <path id="Trazado_4034-2" data-name="Trazado 4034" d="M18.239,1.689h-1.1V.844a.844.844,0,1,0-1.689,0v.844H11.61V.844a.844.844,0,0,0-1.689,0v.844h-3.8V.844a.844.844,0,0,0-1.689,0v.844H3.378A3.381,3.381,0,0,0,0,5.066V18.239a3.381,3.381,0,0,0,3.378,3.378h6.46a.844.844,0,0,0,0-1.689H3.378a1.691,1.691,0,0,1-1.689-1.689V5.066A1.691,1.691,0,0,1,3.378,3.378H4.433v.844a.844.844,0,1,0,1.689,0V3.378h3.8v.844a.844.844,0,0,0,1.689,0V3.378h3.842v.844a.844.844,0,0,0,1.689,0V3.378h1.1a1.691,1.691,0,0,1,1.689,1.689V9.879a.844.844,0,1,0,1.689,0V5.066A3.381,3.381,0,0,0,18.239,1.689Z" fill="#444"/>
            <circle id="Elipse_1075-2" data-name="Elipse 1075" cx="1" cy="1" r="1" transform="translate(8 8)" fill="#444"/>
            <circle id="Elipse_1083-2" data-name="Elipse 1083" cx="1" cy="1" r="1" transform="translate(16 8)" fill="#444"/>
            <circle id="Elipse_1082-2" data-name="Elipse 1082" cx="1" cy="1" r="1" transform="translate(8 12)" fill="#444"/>
            <circle id="Elipse_1077-2" data-name="Elipse 1077" cx="1" cy="1" r="1" transform="translate(4 8)" fill="#444"/>
            <circle id="Elipse_1084-2" data-name="Elipse 1084" cx="1" cy="1" r="1" transform="translate(12 8)" fill="#444"/>
            <circle id="Elipse_1081-2" data-name="Elipse 1081" cx="1" cy="1" r="1" transform="translate(4 12)" fill="#444"/>
            <circle id="Elipse_1079-2" data-name="Elipse 1079" cx="1" cy="1" r="1" transform="translate(4 16)" fill="#444"/>
            <circle id="Elipse_1080-2" data-name="Elipse 1080" cx="1" cy="1" r="1" transform="translate(8 16)" fill="#444"/>
            <path id="Trazado_4036-2" data-name="Trazado 4036" d="M373.211,332.481h-1.057V330.9c0-.5-.065-.785-.563-.785s-.591.287-.591.785v1.85a.9.9,0,0,0,.9.9h1.309c.5,0,.773-.132.773-.63S373.71,332.481,373.211,332.481Z" transform="translate(-355.537 -316.068)" fill="#dd141d"/>
            <g id="Grupo_12379" data-name="Grupo 12379">
              <path id="Trazado_4034-3" data-name="Trazado 4034" d="M18.239,1.689h-1.1V.844a.844.844,0,1,0-1.689,0v.844H11.61V.844a.844.844,0,0,0-1.689,0v.844h-3.8V.844a.844.844,0,0,0-1.689,0v.844H3.378A3.381,3.381,0,0,0,0,5.066V18.239a3.381,3.381,0,0,0,3.378,3.378h6.46a.844.844,0,0,0,0-1.689H3.378a1.691,1.691,0,0,1-1.689-1.689V5.066A1.691,1.691,0,0,1,3.378,3.378H4.433v.844a.844.844,0,1,0,1.689,0V3.378h3.8v.844s.378.844.844.844a.844.844,0,0,0,.844-.844V3.378h3.842v.844a.844.844,0,0,0,1.689,0V3.378h1.1a1.691,1.691,0,0,1,1.689,1.689V9.879a.844.844,0,1,0,1.689,0V5.066A3.381,3.381,0,0,0,18.239,1.689Z" fill="#444"/>
              <circle id="Elipse_1075-3" data-name="Elipse 1075" cx="1" cy="1" r="1" transform="translate(8 8)" fill="#444"/>
              <circle id="Elipse_1083-3" data-name="Elipse 1083" cx="1" cy="1" r="1" transform="translate(16 8)" fill="#444"/>
              <circle id="Elipse_1082-3" data-name="Elipse 1082" cx="1" cy="1" r="1" transform="translate(8 12)" fill="#444"/>
              <circle id="Elipse_1077-3" data-name="Elipse 1077" cx="1" cy="1" r="1" transform="translate(4 8)" fill="#444"/>
              <circle id="Elipse_1084-3" data-name="Elipse 1084" cx="1" cy="1" r="1" transform="translate(12 8)" fill="#444"/>
              <circle id="Elipse_1081-3" data-name="Elipse 1081" cx="1" cy="1" r="1" transform="translate(4 12)" fill="#444"/>
              <circle id="Elipse_1079-3" data-name="Elipse 1079" cx="1" cy="1" r="1" transform="translate(4 16)" fill="#444"/>
              <circle id="Elipse_1080-3" data-name="Elipse 1080" cx="1" cy="1" r="1" transform="translate(8 16)" fill="#444"/>
              <path id="Trazado_4036-3" data-name="Trazado 4036" d="M373.211,332.481h-1.057V330.9c0-.5-.065-.785-.563-.785s-.591.287-.591.785v1.85a.9.9,0,0,0,.9.9h1.309c.5,0,.773-.132.773-.63S373.71,332.481,373.211,332.481Z" transform="translate(-355.537 -316.068)" fill="#dd141d"/>
            </g>
          </g>
        </g>
        <path id="Trazado_4037" data-name="Trazado 4037" d="M172.469,22.509a5.308,5.308,0,1,0,5.308,5.308A5.308,5.308,0,0,0,172.469,22.509Zm0,9.386a4.078,4.078,0,1,1,4.078-4.078A4.078,4.078,0,0,1,172.469,31.9Z" transform="translate(-156.161 -11.426)" fill="#dd141d"/>
      </g>
    </g>
    <rect id="Rectángulo_1489" data-name="Rectángulo 1489" width="26" height="26" transform="translate(-10692 662)" fill="none"/>
  </g>
</svg>
