<svg xmlns="http://www.w3.org/2000/svg" width="26" height="26" viewBox="0 0 26 26">
  <g id="Grupo_12384" data-name="Grupo 12384" transform="translate(10690 -619)">
    <g id="Grupo_12383" data-name="Grupo 12383" transform="translate(-10727 36)">
      <g id="Grupo_7361" data-name="Grupo 7361" transform="translate(7 53.359)">
        <g id="Grupo_7291" data-name="Grupo 7291" transform="translate(0 -3)">
          <g id="pay-2" transform="translate(76 542)">
            <g id="Grupo_7290" data-name="Grupo 7290" transform="translate(-34.351 -1.617)">
              <path id="Trazado_4020" data-name="Trazado 4020" d="M238.828,69.779c-.807-.323-1.04-.519-1.04-.872,0-.283.214-.613.818-.613a2.27,2.27,0,0,1,.947.212.3.3,0,0,0,.139.035.281.281,0,0,0,.263-.18l.147-.375a.232.232,0,0,0-.125-.3,5.681,5.681,0,0,0-.978-.255.051.051,0,0,1-.046-.052l0-.544a.3.3,0,0,0-.3-.3h-.263a.3.3,0,0,0-.3.3v.572c0,.044-.048.063-.065.067a1.579,1.579,0,0,0-1.318,1.537c0,.934.772,1.356,1.606,1.673.666.262.938.527.938.916,0,.423-.385.719-.937.719a3.3,3.3,0,0,1-1.115-.3.3.3,0,0,0-.128-.029.285.285,0,0,0-.269.187l-.14.379a.246.246,0,0,0,.125.308,4.963,4.963,0,0,0,1.183.329c.009,0,.055.017.055.06v.569a.3.3,0,0,0,.3.3h.272a.3.3,0,0,0,.3-.3v-.6a.056.056,0,0,1,.05-.063,1.652,1.652,0,0,0,1.4-1.62C240.342,70.724,239.889,70.2,238.828,69.779Z" transform="translate(-231.348 -63.189)" fill="#dd141d"/>
              <path id="Trazado_4021" data-name="Trazado 4021" d="M174.3,22.509a7.141,7.141,0,1,0,7.141,7.141A7.141,7.141,0,0,0,174.3,22.509Zm0,12.627a5.486,5.486,0,1,1,5.486-5.486A5.486,5.486,0,0,1,174.3,35.136Z" transform="translate(-167.161 -22.509)" fill="#dd141d"/>
            </g>
            <path id="Trazado_4040" data-name="Trazado 4040" d="M0,0" transform="translate(-46 -6)"/>
            <path id="Trazado_4041" data-name="Trazado 4041" d="M66.114,9.747a6.217,6.217,0,0,0,2.842.927,5.9,5.9,0,0,1,.777-2.958,10.2,10.2,0,0,1-2.043-.747l-.363-.294.78-.962L68.466,6a3.283,3.283,0,0,0,4.175-.062l.433-.372,3.655,3.654a1.242,1.242,0,1,0,1.753-1.76L74.111,3.089l.876-.876s.776.862,1.5,1.5a6.541,6.541,0,0,1,5.376,1,16.484,16.484,0,0,0-2.711-3.442A4.307,4.307,0,0,0,76.089,0a46.17,46.17,0,0,0-4.728-.358A10.946,10.946,0,0,0,68.3,0a1.859,1.859,0,0,0-.831.2L66.082.89a3.11,3.11,0,0,1-1.5.325L64,1.194v8.1h1.425Zm0,0" transform="translate(-105.045 -6)" fill="#444"/>
            <path id="Sustracci칩n_445" data-name="Sustracci칩n 445" d="M3,9H1a.954.954,0,0,1-1-.9L1,.9A.956.956,0,0,1,2,0H3A.955.955,0,0,1,4,.9V8.1A.954.954,0,0,1,3,9ZM2,6.3a.956.956,0,0,0-1,.9.956.956,0,0,0,1,.9.954.954,0,0,0,1-.9A.954.954,0,0,0,2,6.3Z" transform="translate(-46 -5)" fill="#444"/>
          </g>
        </g>
      </g>
    </g>
    <rect id="Rect치ngulo_1488" data-name="Rect치ngulo 1488" width="26" height="26" transform="translate(-10690 619)" fill="none"/>
  </g>
</svg>
