<svg xmlns="http://www.w3.org/2000/svg" width="11.58" height="14.482" viewBox="0 0 11.58 14.482">
  <g id="Grupo_12378" data-name="Grupo 12378" transform="translate(12797 -5073.861)">
    <g id="Grupo_12377" data-name="Grupo 12377" transform="translate(-13018.006 4603)">
      <path id="Sustracción_450" data-name="Sustracción 450" d="M5.79,0A5.707,5.707,0,0,0,0,5.607,4.527,4.527,0,0,0,.841,8.271c.631.975,4.632,6.03,4.632,6.03s.184.181.317.181.317-.181.317-.181,4.326-5.336,4.707-6.03a6.011,6.011,0,0,0,.766-2.665A5.708,5.708,0,0,0,5.79,0Zm0,9.462A3.924,3.924,0,0,1,1.809,5.607,3.923,3.923,0,0,1,5.79,1.752,3.924,3.924,0,0,1,9.771,5.607,3.924,3.924,0,0,1,5.79,9.462Z" transform="translate(221.006 470.861)" fill="#575757"/>
      <path id="Trazado_4131" data-name="Trazado 4131" d="M2.963,0A2.963,2.963,0,1,1,0,2.963,2.963,2.963,0,0,1,2.963,0Z" transform="translate(223.96 473.49)" fill="#dd141d"/>
    </g>
  </g>
</svg>
