<svg xmlns="http://www.w3.org/2000/svg" width="26.24" height="26.24" viewBox="0 0 26.24 26.24">
  <g id="Grupo_12378" data-name="Grupo 12378" transform="translate(13418 -5904.76)">
    <path id="Trazado_5018" data-name="Trazado 5018" d="M33.306,12.3a2.3,2.3,0,0,0,1.6-.648l2.276,1.138a2.258,2.258,0,0,0-.028.279,2.306,2.306,0,1,0,4.613,0,2.278,2.278,0,0,0-.231-.988l3.087-3.087a2.278,2.278,0,0,0,.988.231,2.309,2.309,0,0,0,2.306-2.306,2.272,2.272,0,0,0-.115-.683L50.48,4.225a2.3,2.3,0,1,0-1.03-1.918,2.272,2.272,0,0,0,.115.683L46.883,5a2.3,2.3,0,0,0-3.352,2.906l-3.087,3.087a2.266,2.266,0,0,0-2.584.417l-2.276-1.138a2.259,2.259,0,0,0,.028-.279A2.306,2.306,0,1,0,33.306,12.3Zm0,0" transform="translate(-13447.411 5904.76)" fill="#575757"/>
    <path id="Trazado_5019" data-name="Trazado 5019" d="M25.472,167.015h-.82V150.769a.768.768,0,0,0-.769-.769H20.808a.768.768,0,0,0-.769.769v16.246H18.5V155.381a.768.768,0,0,0-.769-.769H14.658a.768.768,0,0,0-.769.769v11.634H12.351v-5.484a.768.768,0,0,0-.769-.769H8.508a.768.768,0,0,0-.769.769v5.484H6.2v-8.559a.768.768,0,0,0-.769-.769H2.358a.768.768,0,0,0-.769.769v8.559H.769a.769.769,0,1,0,0,1.538h24.7a.769.769,0,1,0,0-1.538Zm0,0" transform="translate(-13418 5762.447)" fill="#575757"/>
  </g>
</svg>
